<svg width="237" height="37" viewBox="0 0 237 37" fill="none" xmlns="http://www.w3.org/2000/svg">
<g clip-path="url(#clip0_420_11418)">
<path d="M13.62 32.9001C5.86 32.9001 0 27.2501 0 19.7501C0 12.1301 5.74 6.6001 13.66 6.6001C17.81 6.6001 21.4 8.1301 23.77 10.9001L24.39 11.6201L20.13 15.6301L19.44 14.8901C17.93 13.2701 16.06 12.4401 13.86 12.4401C9.48 12.4401 6.42 15.4401 6.42 19.7401C6.42 24.0401 9.48 27.0401 13.86 27.0401C16.09 27.0401 17.92 26.2301 19.43 24.5701L20.12 23.8101L24.38 27.8701L23.76 28.5901C21.39 31.3701 17.79 32.9001 13.62 32.9001Z" fill="black"/>
<path d="M48.9008 32.5599V22.4399H38.6908V32.5599H32.3008V6.93994H38.6908V16.6899H48.9008V6.93994H55.2908V32.5599H48.9008Z" fill="black"/>
<path d="M83.7403 32.5599L81.3803 27.0899H70.8803L68.5503 32.5599H61.8203L73.3503 6.93994H78.9603L90.5303 32.5599H83.7403ZM79.0603 21.6499L76.1303 14.8599L73.2203 21.6499H79.0603Z" fill="black"/>
<path d="M146.071 32.5599V22.4399H135.851V32.5599H129.461V6.93994H135.851V16.6899H146.071V6.93994H152.451V32.5599H146.071Z" fill="black"/>
<path d="M169.269 6.93994H162.879V32.5599H169.269V6.93994Z" fill="black"/>
<path d="M197.619 32.5599L186.069 18.3799V32.5599H179.719V6.93994H184.799L196.349 21.1199V6.93994H202.709V32.5599H197.619Z" fill="black"/>
<path d="M225.161 32.9001C217.211 32.9001 211.441 27.3701 211.441 19.7501C211.441 12.1301 217.241 6.6001 225.231 6.6001C229.521 6.6001 233.051 8.0501 235.461 10.7901L236.091 11.5001L231.941 15.5501L231.241 14.8501C229.601 13.2101 227.751 12.4401 225.431 12.4401C220.971 12.4401 217.861 15.4401 217.861 19.7401C217.861 24.0401 220.961 27.0401 225.401 27.0401C226.861 27.0401 228.121 26.7701 229.261 26.2201V18.4601H235.411V29.3501L235.041 29.6501C232.501 31.7201 228.901 32.9001 225.161 32.9001Z" fill="black"/>
<path d="M13.591 33.1401C7.59097 33.1401 2.40097 29.3601 0.680975 23.7201C-1.47903 16.6701 2.63097 9.14008 9.83097 6.94008C11.161 6.53008 12.541 6.33008 13.921 6.33008C17.671 6.33008 21.161 7.83008 23.751 10.5401L24.441 11.2601L20.141 15.3501L19.451 14.6301C18.001 13.1101 16.041 12.2701 13.921 12.2701C13.131 12.2701 12.341 12.3901 11.581 12.6201C9.61097 13.2201 7.98098 14.5301 6.99097 16.3101C6.00097 18.0801 5.78097 20.1001 6.35098 21.9901C7.30097 25.1101 10.211 27.2001 13.581 27.2001C14.361 27.2001 15.151 27.0801 15.901 26.8501C18.971 25.9101 21.131 23.3001 21.391 20.1901L27.311 20.6901C26.841 26.2301 23.041 30.8801 17.631 32.5301C16.321 32.9301 14.951 33.1401 13.591 33.1401Z" fill="black"/>
<path d="M107.711 32.3901C101.701 32.3901 96.5215 28.6101 94.8015 22.9701C92.6515 15.9201 96.7615 8.39008 103.961 6.19008C105.291 5.78008 106.671 5.58008 108.051 5.58008C111.801 5.58008 115.291 7.07008 117.881 9.79008L118.571 10.5101L114.271 14.6001L113.581 13.8801C112.131 12.3601 110.171 11.5201 108.051 11.5201C107.261 11.5201 106.471 11.6401 105.711 11.8701C103.741 12.4701 102.111 13.7801 101.121 15.5601C100.141 17.3301 99.9215 19.3401 100.501 21.2301C101.451 24.3501 104.361 26.4401 107.731 26.4401C108.511 26.4401 109.301 26.3201 110.051 26.0901C113.121 25.1501 115.281 22.5401 115.541 19.4301L115.621 18.4301L121.541 18.9301L121.461 19.9301C120.991 25.4701 117.191 30.1201 111.781 31.7701C110.441 32.1901 109.081 32.3901 107.711 32.3901Z" fill="black"/>
<path d="M109.582 0H106.352V6.79H109.582V0Z" fill="black"/>
<path d="M109.582 30H106.352V36.79H109.582V30Z" fill="black"/>
</g>
<defs>
<clipPath id="clip0_420_11418">
<rect width="236.09" height="36.79" fill="white"/>
</clipPath>
</defs>
</svg>
