<svg width="442" height="73" viewBox="0 0 442 73" fill="none" xmlns="http://www.w3.org/2000/svg">
<g clip-path="url(#clip0_420_11408)">
<path d="M94.049 60.8762L94.049 42.3144L75.2428 42.3144L75.2428 60.8762L63.4844 60.8762L63.4844 13.8848L75.2428 13.8848L75.2428 31.7679L94.049 31.7679L94.049 13.8848L105.807 13.8848L105.807 60.8762L94.049 60.8762Z" fill="white"/>
<path d="M158.16 60.876L153.799 50.8432L134.496 50.8432L130.208 60.876L117.824 60.876L139.041 13.8662L149.364 13.8662L170.654 60.876L158.16 60.876ZM149.548 40.8653L144.156 28.3929L138.802 40.8653L149.548 40.8653Z" fill="white"/>
<path d="M276.902 60.8762L276.902 42.3144L258.096 42.3144L258.096 60.8762L246.355 60.8762L246.355 13.8848L258.096 13.8848L258.096 31.7679L276.902 31.7679L276.902 13.8848L288.66 13.8848L288.66 60.8762L276.902 60.8762Z" fill="white"/>
<path d="M320.7 13.8848L308.941 13.8848L308.941 60.8762L320.7 60.8762L320.7 13.8848Z" fill="white"/>
<path d="M374.138 60.8762L352.884 34.8493L352.884 60.8762L341.199 60.8762L341.199 13.8848L350.547 13.8848L371.801 39.8933L371.801 13.8848L383.504 13.8848L383.504 60.8762L374.138 60.8762Z" fill="white"/>
<path d="M421.887 61.4999C407.166 61.4999 396.641 51.3569 396.641 37.3805C396.641 23.4041 407.313 13.2612 422.016 13.2612C429.91 13.2612 436.424 15.9024 440.859 20.9281L442 22.2486L434.363 29.5853L433.075 28.3015C431.701 26.8616 430.041 25.7245 428.199 24.9631C426.358 24.2018 424.377 23.8332 422.384 23.881C414.195 23.881 408.454 29.3836 408.454 37.2888C408.454 45.1941 414.159 50.6783 422.329 50.6783C424.781 50.7284 427.212 50.2137 429.432 49.1742L429.432 37.2888L440.749 37.2888L440.749 54.9335L440.068 55.4838C434.854 59.462 428.452 61.5806 421.887 61.4999Z" fill="white"/>
<path d="M39.122 37.1972C38.7974 39.9317 37.6737 42.5109 35.8907 44.6142C34.1077 46.7176 31.7441 48.2522 29.0933 49.0276C27.7038 49.4513 26.2588 49.6676 24.8057 49.6695C21.8517 49.7158 18.9617 48.8108 16.5648 47.0892C14.168 45.3676 12.3922 42.9212 11.5016 40.1135C10.9819 38.3885 10.8167 36.5768 11.0159 34.7867C11.2151 32.9966 11.7746 31.2649 12.6609 29.6954C14.4762 26.422 17.5097 23.9912 21.107 22.9273C22.503 22.5041 23.954 22.2879 25.4131 22.2854C27.3159 22.2758 29.2004 22.655 30.9505 23.3995C32.7007 24.144 34.2792 25.2379 35.5888 26.614L36.8586 27.9346L44.7711 20.4328L43.5199 19.1123C41.1955 16.6599 38.3907 14.7092 35.2793 13.3809C32.1679 12.0527 28.816 11.3752 25.4313 11.3904C22.8814 11.3971 20.3461 11.774 17.9052 12.5092C11.5816 14.3719 6.25667 18.6573 3.09719 24.4263C-0.0622785 30.1953 -0.798716 36.9775 1.04951 43.2866C2.61555 48.3355 5.77609 52.745 10.0601 55.8584C14.3442 58.9718 19.5226 60.6224 24.8241 60.5645C27.3499 60.5577 29.861 60.1808 32.2767 59.4457C37.0884 58.027 41.3596 55.1963 44.5337 51.3226C47.7077 47.4489 49.6371 42.7118 50.0707 37.7291L50.0707 37.1972L39.122 37.1972Z" fill="white"/>
<path d="M222.674 37.8755C222.252 41.2225 220.648 44.3104 218.15 46.5858C215.651 48.8612 212.421 50.1754 209.039 50.2929L205.855 50.2929L205.855 72.9632L211.799 72.9632L211.799 60.986C217.462 60.2432 222.704 57.6072 226.668 53.509C230.633 49.4109 233.084 44.0933 233.623 38.4257L233.623 37.8755L222.674 37.8755Z" fill="white"/>
<path d="M204.642 23.6056C206.038 23.1824 207.489 22.9662 208.948 22.9637C210.836 22.9666 212.703 23.3518 214.436 24.0959C216.17 24.84 217.733 25.9275 219.032 27.2923L219.29 27.5674L227.018 19.8639C222.989 15.6277 217.584 12.9506 211.764 12.3071L211.764 0.0732422L205.82 0.0732422L205.82 12.1971C204.324 12.3818 202.846 12.6947 201.404 13.1325C196.117 14.7101 191.502 17.9837 188.275 22.4448C185.047 26.9058 183.387 32.3045 183.554 37.8022C183.622 39.8675 183.962 41.915 184.567 43.8916C185.867 48.1934 188.354 52.0446 191.743 55.0067L199.527 47.2481C197.022 45.2982 195.303 42.5155 194.685 39.4076C194.066 36.2998 194.59 33.0739 196.159 30.3187C198.002 27.0652 201.045 24.6566 204.642 23.6056Z" fill="white"/>
</g>
<defs>
<clipPath id="clip0_420_11408">
<rect width="442" height="73" fill="white"/>
</clipPath>
</defs>
</svg>
